<svg xmlns="http://www.w3.org/2000/svg" viewBox="0 0 483.6 133.89" shape-rendering="geometricPrecision" data-v-4f278c78="" data-v-3b26d0b0=""><path d="M22,36.9v69.8H1.9V36.9Z" transform="translate(0 -0.01)" class="stroke" style="fill:$pink;stroke:$pink;" data-v-4f278c78=""></path> <path d="M61,133.9c-21.8,0-33.7-10.4-33.7-22.5a26.19, 26.19,0,0,1,13.1-22,7.89,7.89,0,0,1-1.5-4.6c0-2, .8-3.4,1.9-6-5.9-3.8-11.2-10-11.2-17.7C29.3,43.9, 41.8,34.4,61,34.4a36.37,36.37,0,0,1,7.2.5l7-7,16.5,9.5-5.9, 6.9a24.62,24.62,0,0,1,5.4,14.3c0,17.9-15.8,25-31.4,25a11.75, 11.75,0,0,1-1.9,0,11.15,11.15,0,0,0-.3,1.3c14.3-.3,36.6,5.3, 37.2,24.7C95.3,127.2,77.6,133.9,61,133.9Zm.1-16.7c7.3,0, 12.9-2.6,12.9-7,0-5.1-4.4-8.7-13.5-8.7-6.5,0-12.8,2.5-12.8, 9C47.7,114.1,53.4,117.2,61.1,117.2ZM60,66c7.8,0,11-3.5, 11-7.5s-4.5-7.8-10.5-7.8c-6.3,0-11.3,3.6-11.3,7.8C49.3, 62.5,52.7,66,60,66Z" transform="translate(0 -0.01)" class="stroke" style="fill:$pink;stroke:$pink;" data-v-4f278c78=""></path> <path d="M119.1,11.3v95.4H99.5V11.3Z" transform="translate(0 -0.01)" class="stroke" style="fill:$pink;stroke:$pink;" data-v-4f278c78=""></path> <path d="M190,59.4V85.9c-.1,18.1-20.2,22.8-31.1,22.8-12.8, 0-31.5-8.8-31.5-22.8V59.4c0-16.4,16.8-24.8,31.5-24.8C169.2, 34.5,190.1,37.9,190,59.4Zm-42.4,0V83.5c0,5.3,7.6,7.8,11.3, 7.8,4.3,0,11.7-2.3,11.7-7.8V59.4c0-5-6.6-7.2-11.7-7.2C154.6, 52.2,147.6,54.4,147.6,59.4Z" transform="translate(0 -0.01)" class="stroke" style="fill:$pink;stroke:$pink;" data-v-4f278c78=""></path> <path d="M259.9,59.4V85.9c-.1,18.1-20.2,22.8-31.1,22.8-12.8, 0-31.5-8.8-31.5-22.8V59.4c0-16.4,16.8-24.8,31.5-24.8C239.1, 34.5,260.1,37.9,259.9,59.4Zm-42.4,0V83.5c0,5.3,7.6,7.8,11.3, 7.8,4.3,0,11.7-2.3,11.7-7.8V59.4c0-5-6.6-7.2-11.7-7.2C224.6, 52.2,217.5,54.4,217.5,59.4Z" transform="translate(0 -0.01)" class="stroke" style="fill:$pink;stroke:$pink;" data-v-4f278c78=""></path> <path d="M288.1,53.3a39.2,39.2,0,0,1,22-11c10.3-18,34.9-45.4, 89.2-42,64.4,4.1,83.3,68.9,84.3,102.5h-19a128.83,128.83, 0,0,0-9.8-41.5c-11.4-26.2-30.5-40.4-56.7-42C361,17,341.4, 31.2,331.5,43.9c27.5,8.5,36,40.9,36.5,59H349a82.51,82.51, 0,0,0-5.1-22.4c-8.3-20.9-26.1-19.7-26.1-19.7h-.4a20.8,20.8,0, 0,0-15.9,6c-9.9,9.7-12.1,29.3-12.1,36.1h-19C270.4,101.5, 270.6,70.6,288.1,53.3Z" transform="translate(0 -0.01)" class="stroke-2" style="fill: rgb(84, 84, 84); stroke: rgb(84, 84, 84);" data-v-4f278c78=""></path> <path d="M12,6.7a12,12,0,0,1,0,24,12,12,0,0,1,0-24Z" transform="translate(0 -0.01)" class="stroke-2 dot" style="fill: rgb(84, 84, 84); stroke: rgb(84, 84, 84);" data-v-4f278c78=""></path></svg>